<?xml version="1.0" encoding="UTF-8"?>
<svg version="1.1" xmlns="http://www.w3.org/2000/svg" width="96" height="96">
<path d="M0 0 C1.65 0 3.3 0 5 0 C5.92117714 3.62845348 6.02065663 6.94003867 5.88354492 10.67211914 C5.63497972 17.94201058 6.03077546 23.73485147 10 30 C10.37382812 30.63292969 10.74765625 31.26585938 11.1328125 31.91796875 C15.00796412 37.93600223 20.62943546 42.17850932 27.4375 44.4921875 C35.71805395 46.13315093 45.39343487 46.37384042 52.98046875 42.35546875 C56.12041679 40.24799879 59.02383266 37.89010306 61.859375 35.390625 C64.43507611 33.71735932 65.98655311 33.72605028 69 34 C69.64453125 35.7890625 69.64453125 35.7890625 70 38 C66.38826126 45.15810665 57.9808028 49.60648122 50.73046875 52.14453125 C38.80049458 54.88030543 26.06208179 54.0274048 15.58203125 47.4921875 C6.80263894 41.1686721 0.11845801 32.75719997 -2 22 C-3.46861718 5.20292577 -3.46861718 5.20292577 0 0 Z " fill="#000000" transform="translate(10,35)"/>
<path d="M0 0 C8.76978327 6.31659432 15.48190454 14.73852664 17.58203125 25.4921875 C18.80852535 41.0391993 18.80852535 41.0391993 16.58203125 45.4921875 C14.9159122 45.5349085 13.2482024 45.53282582 11.58203125 45.4921875 C9.7160014 43.62615765 10.41109591 40.95003348 10.34277344 38.46020508 C10.1142048 30.75820399 9.83556973 24.15176794 5.58203125 17.4921875 C5.20949219 16.86183594 4.83695313 16.23148438 4.453125 15.58203125 C0.57875077 9.55948913 -5.04418323 5.31477281 -11.85546875 3 C-21.14986844 1.15812201 -31.29825155 1.21353077 -39.41796875 6.4921875 C-40.67561093 7.41941045 -41.92595826 8.35662832 -43.16796875 9.3046875 C-46.41796875 11.4921875 -46.41796875 11.4921875 -49.35546875 11.3046875 C-50.03609375 11.0365625 -50.71671875 10.7684375 -51.41796875 10.4921875 C-51.65625 8.21484375 -51.65625 8.21484375 -51.41796875 5.4921875 C-39.32345054 -8.87191931 -15.03443014 -9.37526661 0 0 Z " fill="#000000" transform="translate(70.41796875,13.5078125)"/>
<path d="M0 0 C3.12578143 1.6720747 5.39281175 3.7856235 7 7 C7.5350086 12.36762727 7.66175234 16.69931437 5.1875 21.5625 C3 24 3 24 0 26 C-1.21284876 29.05429073 -1.21284876 29.05429073 -2 32 C-3.98 32 -5.96 32 -8 32 C-8.85783392 25.13732868 -8.85783392 25.13732868 -6.44140625 21.93359375 C-5.15101988 20.60685847 -3.85806176 19.28261946 -2.5625 17.9609375 C-0.64040044 15.897195 -0.64040044 15.897195 -0.5 12.0625 C-0.67228145 9.13307539 -0.67228145 9.13307539 -2 8 C-3.99958364 7.95919217 -6.00045254 7.95745644 -8 8 C-8.99 10.64 -9.98 13.28 -11 16 C-12.98 16 -14.96 16 -17 16 C-17.76140684 8.38593156 -17.76140684 8.38593156 -15.95703125 5.1015625 C-11.32870652 -0.46328541 -6.95003692 -0.97917825 0 0 Z " fill="#000000" transform="translate(53,26)"/>
<path d="M0 0 C3 0.125 3 0.125 4 1.125 C4.125 4.125 4.125 4.125 4 7.125 C3 8.125 3 8.125 0 8.25 C-3 8.125 -3 8.125 -4 7.125 C-4.125 4.125 -4.125 4.125 -4 1.125 C-3 0.125 -3 0.125 0 0 Z " fill="#000000" transform="translate(48,63.875)"/>
</svg>
